%TF.GenerationSoftware,KiCad,Pcbnew,8.0.8*%
%TF.CreationDate,2025-03-13T13:25:16-06:00*%
%TF.ProjectId,Final_Project-REAL,46696e61-6c5f-4507-926f-6a6563742d52,rev?*%
%TF.SameCoordinates,Original*%
%TF.FileFunction,Soldermask,Bot*%
%TF.FilePolarity,Negative*%
%FSLAX46Y46*%
G04 Gerber Fmt 4.6, Leading zero omitted, Abs format (unit mm)*
G04 Created by KiCad (PCBNEW 8.0.8) date 2025-03-13 13:25:16*
%MOMM*%
%LPD*%
G01*
G04 APERTURE LIST*
G04 Aperture macros list*
%AMRoundRect*
0 Rectangle with rounded corners*
0 $1 Rounding radius*
0 $2 $3 $4 $5 $6 $7 $8 $9 X,Y pos of 4 corners*
0 Add a 4 corners polygon primitive as box body*
4,1,4,$2,$3,$4,$5,$6,$7,$8,$9,$2,$3,0*
0 Add four circle primitives for the rounded corners*
1,1,$1+$1,$2,$3*
1,1,$1+$1,$4,$5*
1,1,$1+$1,$6,$7*
1,1,$1+$1,$8,$9*
0 Add four rect primitives between the rounded corners*
20,1,$1+$1,$2,$3,$4,$5,0*
20,1,$1+$1,$4,$5,$6,$7,0*
20,1,$1+$1,$6,$7,$8,$9,0*
20,1,$1+$1,$8,$9,$2,$3,0*%
G04 Aperture macros list end*
%ADD10R,1.700000X1.700000*%
%ADD11O,1.700000X1.700000*%
%ADD12RoundRect,0.250000X0.725000X-0.600000X0.725000X0.600000X-0.725000X0.600000X-0.725000X-0.600000X0*%
%ADD13O,1.950000X1.700000*%
%ADD14C,1.600000*%
%ADD15O,1.600000X1.600000*%
%ADD16R,1.800000X1.800000*%
%ADD17C,1.800000*%
G04 APERTURE END LIST*
D10*
%TO.C,J1*%
X127940000Y-97460000D03*
D11*
X130480000Y-97460000D03*
X133020000Y-97460000D03*
X135560000Y-97460000D03*
X138100000Y-97460000D03*
X140640000Y-97460000D03*
X143180000Y-97460000D03*
X145720000Y-97460000D03*
%TD*%
D10*
%TO.C,J3*%
X150800000Y-97460000D03*
D11*
X153340000Y-97460000D03*
X155880000Y-97460000D03*
X158420000Y-97460000D03*
X160960000Y-97460000D03*
X163500000Y-97460000D03*
%TD*%
D10*
%TO.C,J2*%
X118796000Y-49200000D03*
D11*
X121336000Y-49200000D03*
X123876000Y-49200000D03*
X126416000Y-49200000D03*
X128956000Y-49200000D03*
X131496000Y-49200000D03*
X134036000Y-49200000D03*
X136576000Y-49200000D03*
X139116000Y-49200000D03*
X141656000Y-49200000D03*
%TD*%
D10*
%TO.C,J4*%
X145720000Y-49200000D03*
D11*
X148260000Y-49200000D03*
X150800000Y-49200000D03*
X153340000Y-49200000D03*
X155880000Y-49200000D03*
X158420000Y-49200000D03*
X160960000Y-49200000D03*
X163500000Y-49200000D03*
%TD*%
D10*
%TO.C,J5*%
X121975000Y-95825000D03*
D11*
X121975000Y-93285000D03*
X121975000Y-90745000D03*
X121975000Y-88205000D03*
X121975000Y-85665000D03*
X121975000Y-83125000D03*
%TD*%
D12*
%TO.C,J6*%
X137500000Y-81000000D03*
D13*
X137500000Y-78500000D03*
X137500000Y-76000000D03*
%TD*%
D14*
%TO.C,R3*%
X112340000Y-65500000D03*
D15*
X122500000Y-65500000D03*
%TD*%
D14*
%TO.C,R1*%
X113340000Y-72500000D03*
D15*
X123500000Y-72500000D03*
%TD*%
D14*
%TO.C,R5*%
X111340000Y-58500000D03*
D15*
X121500000Y-58500000D03*
%TD*%
D16*
%TO.C,D3*%
X104910000Y-78400000D03*
D17*
X107450000Y-78400000D03*
%TD*%
D16*
%TO.C,D2*%
X104960000Y-85500000D03*
D17*
X107500000Y-85500000D03*
%TD*%
D16*
%TO.C,D4*%
X104910000Y-70500000D03*
D17*
X107450000Y-70500000D03*
%TD*%
D10*
%TO.C,J7*%
X154500000Y-89000000D03*
D11*
X154500000Y-86460000D03*
X154500000Y-83920000D03*
X154500000Y-81380000D03*
%TD*%
D14*
%TO.C,R4*%
X111840000Y-62000000D03*
D15*
X122000000Y-62000000D03*
%TD*%
D16*
%TO.C,D5*%
X104910000Y-63500000D03*
D17*
X107450000Y-63500000D03*
%TD*%
D16*
%TO.C,D1*%
X104960000Y-93000000D03*
D17*
X107500000Y-93000000D03*
%TD*%
D14*
%TO.C,R2*%
X112840000Y-69000000D03*
D15*
X123000000Y-69000000D03*
%TD*%
D16*
%TO.C,D6*%
X104910000Y-56500000D03*
D17*
X107450000Y-56500000D03*
%TD*%
D14*
%TO.C,R6*%
X110840000Y-55000000D03*
D15*
X121000000Y-55000000D03*
%TD*%
D10*
%TO.C,J8*%
X150460000Y-54000000D03*
D11*
X153000000Y-54000000D03*
X155540000Y-54000000D03*
X158080000Y-54000000D03*
X160620000Y-54000000D03*
X163160000Y-54000000D03*
%TD*%
M02*
