M48
; DRILL file {KiCad 8.0.8} date 2025-03-13T13:25:08-0600
; FORMAT={-:-/ absolute / inch / decimal}
; #@! TF.CreationDate,2025-03-13T13:25:08-06:00
; #@! TF.GenerationSoftware,Kicad,Pcbnew,8.0.8
; #@! TF.FileFunction,Plated,1,2,PTH
FMAT,2
INCH
; #@! TA.AperFunction,Plated,PTH,ComponentDrill
T1C0.0315
; #@! TA.AperFunction,Plated,PTH,ComponentDrill
T2C0.0354
; #@! TA.AperFunction,Plated,PTH,ComponentDrill
T3C0.0374
; #@! TA.AperFunction,Plated,PTH,ComponentDrill
T4C0.0394
%
G90
G05
T1
X4.3638Y-2.1654
X4.3835Y-2.3031
X4.4031Y-2.4409
X4.4228Y-2.5787
X4.4425Y-2.7165
X4.4622Y-2.8543
X4.7638Y-2.1654
X4.7835Y-2.3031
X4.8031Y-2.4409
X4.8228Y-2.5787
X4.8425Y-2.7165
X4.8622Y-2.8543
T2
X4.1303Y-2.2244
X4.1303Y-2.5
X4.1303Y-2.7756
X4.1303Y-3.0866
X4.1323Y-3.3661
X4.1323Y-3.6614
X4.2303Y-2.2244
X4.2303Y-2.5
X4.2303Y-2.7756
X4.2303Y-3.0866
X4.2323Y-3.3661
X4.2323Y-3.6614
T3
X5.4134Y-2.9921
X5.4134Y-3.0906
X5.4134Y-3.189
T4
X4.677Y-1.937
X4.777Y-1.937
X4.8022Y-3.2726
X4.8022Y-3.3726
X4.8022Y-3.4726
X4.8022Y-3.5726
X4.8022Y-3.6726
X4.8022Y-3.7726
X4.877Y-1.937
X4.977Y-1.937
X5.037Y-3.837
X5.077Y-1.937
X5.137Y-3.837
X5.177Y-1.937
X5.237Y-3.837
X5.277Y-1.937
X5.337Y-3.837
X5.377Y-1.937
X5.437Y-3.837
X5.477Y-1.937
X5.537Y-3.837
X5.577Y-1.937
X5.637Y-3.837
X5.737Y-1.937
X5.737Y-3.837
X5.837Y-1.937
X5.9236Y-2.126
X5.937Y-1.937
X5.937Y-3.837
X6.0236Y-2.126
X6.037Y-1.937
X6.037Y-3.837
X6.0827Y-3.2039
X6.0827Y-3.3039
X6.0827Y-3.4039
X6.0827Y-3.5039
X6.1236Y-2.126
X6.137Y-1.937
X6.137Y-3.837
X6.2236Y-2.126
X6.237Y-1.937
X6.237Y-3.837
X6.3236Y-2.126
X6.337Y-1.937
X6.337Y-3.837
X6.4236Y-2.126
X6.437Y-1.937
X6.437Y-3.837
M30
